# Blender v2.83.3 OBJ File: ''
# www.blender.org
mtllib GrassModel.mtl
o GrassModel_Plane
v -1.218447 -0.129145 -0.000403
v 1.218447 -0.129145 -0.000403
v 1.218447 2.031979 -0.000403
v -1.218447 2.031979 -0.000403
v 1.218447 -0.129145 -0.000000
v -1.218447 -0.129145 -0.000000
v -1.218447 2.031979 0.000000
v 1.218447 2.031979 0.000000
v -0.861429 -0.129145 -0.861916
v 0.861715 -0.129145 0.861228
v 0.861714 2.031978 0.861228
v -0.861430 2.031979 -0.861916
v 0.861430 -0.129145 0.861513
v -0.861715 -0.129145 -0.861631
v -0.861715 2.031979 -0.861631
v 0.861430 2.031978 0.861513
v -0.609398 -0.129145 1.054904
v 0.609049 -0.129145 -1.055508
v 0.609049 2.031979 -1.055508
v -0.609398 2.031978 1.054904
v 0.609398 -0.129145 -1.055307
v -0.609049 -0.129145 1.055105
v -0.609049 2.031978 1.055105
v 0.609398 2.031979 -1.055307
vt 0.000000 0.000000
vt 1.000000 0.000000
vt 1.000000 1.000000
vt 0.000000 1.000000
vt 0.000000 0.000000
vt 1.000000 0.000000
vt 1.000000 1.000000
vt 0.000000 1.000000
vt 0.000000 0.000000
vt 1.000000 0.000000
vt 1.000000 1.000000
vt 0.000000 1.000000
vt 0.000000 0.000000
vt 1.000000 0.000000
vt 1.000000 1.000000
vt 0.000000 1.000000
vt 0.000000 0.000000
vt 1.000000 0.000000
vt 1.000000 1.000000
vt 0.000000 1.000000
vt 0.000000 0.000000
vt 1.000000 0.000000
vt 1.000000 1.000000
vt 0.000000 1.000000
vn 0.0000 -0.0000 1.0000
vn 0.0000 0.0000 -1.0000
vn -0.7071 -0.0000 0.7071
vn 0.7071 0.0000 -0.7071
vn 0.8660 -0.0000 0.5000
vn -0.8660 0.0000 -0.5000
usemtl Material.001
s 1
f 1/1/1 2/2/1 3/3/1 4/4/1
f 5/5/2 6/6/2 7/7/2 8/8/2
f 9/9/3 10/10/3 11/11/3 12/12/3
f 13/13/4 14/14/4 15/15/4 16/16/4
f 17/17/5 18/18/5 19/19/5 20/20/5
f 21/21/6 22/22/6 23/23/6 24/24/6
